<?xml version="1.0" encoding="utf-8"?>
<!-- Generator: Adobe Illustrator 25.4.0, SVG Export Plug-In . SVG Version: 6.00 Build 0)  -->
<svg version="1.1" id="Capa_1" xmlns="http://www.w3.org/2000/svg" xmlns:xlink="http://www.w3.org/1999/xlink" x="0px" y="0px"
	 viewBox="0 0 239.8 97" style="enable-background:new 0 0 239.8 97;" xml:space="preserve">
<style type="text/css">
	.st0{fill:#1D1D1B;}
	.st1{fill:#DFD8D2;}
</style>
<g>
	<g>
		<g>
			<path class="st0" d="M75.8,50.6h-5.1V39h5.1v-6.4l19-6.6v13h8.6v11.6h-8.6v12.1c0,3,0.9,4,3.2,4c1.3,0,2.9,0,4.6-0.5v11.6
				c-4.3,0.9-8.9,1.7-12.6,1.7c-7.4,0-14.2-2.3-14.2-11.1V50.6z"/>
		</g>
		<g>
			<path class="st0" d="M109.3,50.6h-5.1V39h5.1v-6.4l19-6.6v13h8.6v11.6h-8.6v12.1c0,3,0.9,4,3.2,4c1.3,0,2.9,0,4.6-0.5v11.6
				c-4.3,0.9-8.9,1.7-12.6,1.7c-7.4,0-14.2-2.3-14.2-11.1V50.6z"/>
		</g>
		<g>
			<path class="st0" d="M163.4,37.8c16,0,24.1,8.4,24.1,20.9s-8.1,20.9-24.1,20.9s-24.1-8.4-24.1-20.9S147.4,37.8,163.4,37.8z
				 M163.4,68.9c3.1,0,4.5-2.4,4.5-10.2c0-7.9-1.4-10.2-4.5-10.2s-4.5,2.4-4.5,10.2C158.9,66.6,160.4,68.9,163.4,68.9z"/>
		</g>
		<g>
			<path class="st0" d="M215.7,37.8c16,0,24.1,8.4,24.1,20.9s-8.1,20.9-24.1,20.9s-24.1-8.4-24.1-20.9S199.7,37.8,215.7,37.8z
				 M215.7,68.9c3.1,0,4.5-2.4,4.5-10.2c0-7.9-1.4-10.2-4.5-10.2s-4.5,2.4-4.5,10.2C211.2,66.6,212.7,68.9,215.7,68.9z"/>
		</g>
	</g>
	<g>
		
			<rect x="14.2" y="14.2" transform="matrix(0.7071 0.7071 -0.7071 0.7071 48.5038 -20.0909)" class="st1" width="68.6" height="68.6"/>
	</g>
	<g>
		<path class="st1" d="M74.2,92.7L30,48.5L74.2,4.3l44.2,44.2L74.2,92.7z M32.8,48.5l41.4,41.4l41.4-41.4L74.2,7.1L32.8,48.5z"/>
	</g>
	<g>
		<path class="st0" d="M36.4,58.6c0,7.4,0,17.9,11.5,17.9s11.5-10.5,11.5-17.9V22.9h5v39.3c0,14.6-7.7,18.5-16.6,18.5
			c-8.9,0-16.6-3.8-16.6-18.5V22.9h5V58.6z"/>
	</g>
	<g>
		<path class="st0" d="M75.8,50.6h-5.1V39h5.1v-6.4l19-6.6v13h8.6v11.6h-8.6v12.1c0,3,0.9,4,3.2,4c1.3,0,2.9,0,4.6-0.5v11.6
			c-4.3,0.9-8.9,1.7-12.6,1.7c-7.4,0-14.2-2.3-14.2-11.1V50.6z"/>
	</g>
</g>
</svg>
